# xmcd
# 
# Track frame offsets:
#     182
#     19227
#     40677
#     66182
#     85490
#     103637
#     122965
#     144107
#     163512
#     185435
# 
# Disc length: 2744
# 
# Revision: 12
# Processed by: cddbd v1.5.2PL0 Copyright (c) Steve Scherf et al.
# Submitted via: fre:ac v1.0.31
# 
DISCID=810ab60a
DTITLE=Gary Moore - Run For Cover
DYEAR=1985
DGENRE=Hard Rock
TTITLE0=Run For Cover
TTITLE1=Reach For The Sky
TTITLE2=Military Man
TTITLE3=Empty Rooms
TTITLE4=Out Of My System
TTITLE5=Out In The Fields
TTITLE6=Nothing To Lose
TTITLE7=Once In A Lifetime
TTITLE8=All Messed Up
TTITLE9=Listen To Your Heartbeat
EXTD=
EXTT0=
EXTT1=
EXTT2=
EXTT3=
EXTT4=
EXTT5=
EXTT6=
EXTT7=
EXTT8=
EXTT9=
PLAYORDER=
